<?xml version="1.0" standalone="no"?><!DOCTYPE svg PUBLIC "-//W3C//DTD SVG 1.1//EN"
        "http://www.w3.org/Graphics/SVG/1.1/DTD/svg11.dtd">
<svg t="1512304740138" class="icon" style="" viewBox="0 0 1024 1024" version="1.1" xmlns="http://www.w3.org/2000/svg"
     p-id="1893" xmlns:xlink="http://www.w3.org/1999/xlink" width="22" height="22">
    <defs>
        <style type="text/css"></style>
    </defs>
    <path d="M723.771171 128.699174 297.944809 128.699174c-83.434248 0-107.992573 36.722366-106.457614 115.889427l0 534.821775c-0.068562 83.412758 27.628244 115.889427 106.457614 115.889427l425.826362 0c73.564459-2.344395 107.760283-32.477692 106.453521-115.889427L830.224692 244.588601C830.260507 159.281703 802.370297 128.699174 723.771171 128.699174L723.771171 128.699174 723.771171 128.699174zM797.330514 796.859793c0 36.385698-27.317159 65.963341-60.96756 65.963341L283.325857 862.823134c-33.602306 0-60.968583-29.578666-60.968583-65.963341L222.357274 231.384881c0-36.360116 27.366278-65.963341 60.968583-65.963341l453.04119 0c33.646308 0 60.96756 29.578666 60.96756 65.963341l0 565.473889L797.330514 796.85877 797.330514 796.859793z"
          p-id="1894" fill="#007fff"></path>
    <path d="M810.446229 779.410376" p-id="1895" fill="#515151"></path>
    <path d="M318.693366 359.200942l203.382107 0c15.019065 0 27.199479-10.402931 27.199479-23.184025 0-12.868075-12.180414-23.228027-27.199479-23.228027l-203.382107 0c-15.025205 0-27.200502 10.359952-27.200502 23.228027C291.492864 348.802104 303.668161 359.200942 318.693366 359.200942L318.693366 359.200942 318.693366 359.200942zM318.693366 359.200942"
          p-id="1896" fill="#007fff"></path>
    <path d="M703.492312 488.794485 318.693366 488.794485c-15.025205 0-27.200502 10.387581-27.200502 23.230074 0 12.81384 12.175297 23.181979 27.200502 23.181979l384.798946 0c15.025205 0 27.251667-10.368138 27.251667-23.181979C730.74398 499.185136 718.517517 488.794485 703.492312 488.794485L703.492312 488.794485 703.492312 488.794485zM703.492312 488.794485"
          p-id="1897" fill="#007fff"></path>
    <path d="M703.492312 664.823618 318.693366 664.823618c-15.025205 0-27.200502 10.393721-27.200502 23.206538 0 12.811794 12.175297 23.205515 27.200502 23.205515l384.798946 0c15.025205 0 27.251667-10.393721 27.251667-23.205515C730.74398 675.216315 718.517517 664.823618 703.492312 664.823618L703.492312 664.823618 703.492312 664.823618zM703.492312 664.823618"
          p-id="1898" fill="#007fff"></path>
</svg>