<?xml version="1.0" standalone="no"?><!DOCTYPE svg PUBLIC "-//W3C//DTD SVG 1.1//EN" "http://www.w3.org/Graphics/SVG/1.1/DTD/svg11.dtd"><svg t="1510998115374" class="icon" style="" viewBox="0 0 1024 1024" version="1.1" xmlns="http://www.w3.org/2000/svg" p-id="3532" xmlns:xlink="http://www.w3.org/1999/xlink" width="200" height="200"><defs><style type="text/css"></style></defs><path d="M856.716 890.562l-689.431 0c-63.348 0-114.897-51.549-114.897-114.897l0-343.785c0-12.684 10.287-22.97 22.97-22.97s22.97 10.287 22.97 22.97l0 343.761c0 38.028 30.929 68.934 68.934 68.934l689.455 0c38.028 0 68.934-30.929 68.934-68.934l0-515.77c0-38.028-30.929-68.934-68.934-68.934l-689.431 0c-38.028 0-68.934 30.929-68.934 68.934l0 54.132 412.672 266.24 339.898-254.883c10.193-7.587 24.576-5.539 32.186 4.608s5.562 24.553-4.608 32.163l-352.698 264.495c-7.703 5.772-18.176 6.144-26.252 0.931l-436.666-281.716c-6.563-4.236-10.519-11.497-10.519-19.316l0-66.653c0-63.348 51.549-114.897 114.897-114.897l689.455 0c63.348 0 114.897 51.549 114.897 114.897l0 515.77c0.023 63.372-51.526 114.921-114.897 114.921zM864.698 852.115z" p-id="3533" fill="#515151"></path></svg>