<?xml version="1.0" standalone="no"?><!DOCTYPE svg PUBLIC "-//W3C//DTD SVG 1.1//EN" "http://www.w3.org/Graphics/SVG/1.1/DTD/svg11.dtd"><svg t="1510998135521" class="icon" style="" viewBox="0 0 1024 1024" version="1.1" xmlns="http://www.w3.org/2000/svg" p-id="4236" xmlns:xlink="http://www.w3.org/1999/xlink" width="200" height="200"><defs><style type="text/css"></style></defs><path d="M544.38099 32.144094c-8.331759-9.445116-20.210297-14.869662-32.589233-14.882965-0.016373 0-0.031722 0-0.047072 0-12.362562 0-24.232914 5.396917-32.574906 14.810311L29.558711 539.454282l45.952588 40.720424L511.713986 87.924515l434.168354 492.198002 46.044686-40.616046L544.38099 32.144094z" p-id="4237" fill="#515151"></path><path d="M803.870975 898.503774c0 14.331403-11.660574 25.990954-25.990954 25.990954L247.82276 924.494729c-14.331403 0-25.991977-11.660574-25.991977-25.990954L221.830783 552.282448l-61.398372 0 0 346.221326c0 48.187489 39.20286 87.389326 87.390349 87.389326L777.880021 985.8931c48.186466 0 87.389326-39.20286 87.389326-87.389326L865.269347 554.281989l-61.398372 0L803.870975 898.503774z" p-id="4238" fill="#515151"></path><path d="M194.89634 494.432902" p-id="4239" fill="#515151"></path></svg>