<?xml version="1.0" standalone="no"?><!DOCTYPE svg PUBLIC "-//W3C//DTD SVG 1.1//EN" "http://www.w3.org/Graphics/SVG/1.1/DTD/svg11.dtd"><svg t="1510998036322" class="icon" style="" viewBox="0 0 1039 1024" version="1.1" xmlns="http://www.w3.org/2000/svg" p-id="1865" xmlns:xlink="http://www.w3.org/1999/xlink" width="202.9296875" height="200"><defs><style type="text/css"></style></defs><path d="M209.070666 809.388131c-19.395746 0-35.091216-15.691377-35.091216-35.091216L173.97945 479.909118c0-19.401886 15.69547-35.097356 35.091216-35.097356 19.401886 0 35.097356 15.69547 35.097356 35.097356l0 294.387797C244.168022 793.696754 228.472552 809.388131 209.070666 809.388131L209.070666 809.388131zM209.070666 809.388131" p-id="1866" fill="#707070"></path><path d="M504.387625 920.735102c-110.458741 0-260.155135-55.240115-308.921815-102.71129-14.254655-13.878079-21.487384-28.578896-21.487384-43.726897 0-19.395746 15.69547-35.091216 35.091216-35.091216 16.83134 0 30.876218 11.850909 34.307364 27.64871 22.067598 25.908066 163.027004 86.606497 267.655969 83.58979 108.061135-2.978844 246.481717-58.090023 269.680069-83.960227 3.532453-15.626909 17.512862-27.278273 34.20401-27.278273 19.401886 0 35.097356 15.69547 35.097356 35.091216 0 79.163991-236.505505 143.561673-337.059666 146.334833C510.147816 920.701332 507.265162 920.735102 504.387625 920.735102L504.387625 920.735102zM504.387625 920.735102" p-id="1867" fill="#707070"></path><path d="M511.997953 672.16584c-5.587252 0-11.174504-1.332345-16.283872-4.01136L19.61985 418.936441c-11.55108-6.028297-18.814508-18.023492-18.814508-31.079856 0-13.060457 7.232728-25.02086 18.814508-31.085996l476.094232-249.492284c10.216689-5.350868 22.349007-5.350868 32.559557 0l476.06251 249.492284c11.544941 6.065136 18.814508 18.024515 18.814508 31.048133 0 13.023618-7.201006 25.02086-18.744923 31.085996L528.240893 668.154479C523.165294 670.833495 517.578042 672.16584 511.997953 672.16584L511.997953 672.16584zM111.538329 387.855562l400.459624 209.599715 400.591631-209.529107L511.997953 177.977507 111.538329 387.855562 111.538329 387.855562zM111.538329 387.855562" p-id="1868" fill="#707070"></path><path d="M814.917054 809.388131c-19.395746 0-35.091216-15.691377-35.091216-35.091216L779.825838 479.909118c0-19.401886 15.69547-35.097356 35.091216-35.097356 19.401886 0 35.097356 15.69547 35.097356 35.097356l0 294.387797C850.009294 793.696754 834.31894 809.388131 814.917054 809.388131L814.917054 809.388131zM814.917054 809.388131" p-id="1869" fill="#707070"></path><path d="M988.054323 852.163353c-19.395746 0-35.091216-15.69547-35.091216-35.097356L952.963107 387.855562c0-19.401886 15.69547-35.097356 35.091216-35.097356 19.399839 0 35.097356 15.69547 35.097356 35.097356l0 429.210435C1023.151679 836.467883 1007.454162 852.163353 988.054323 852.163353L988.054323 852.163353zM988.054323 852.163353" p-id="1870" fill="#707070"></path></svg>