<?xml version="1.0" standalone="no"?><!DOCTYPE svg PUBLIC "-//W3C//DTD SVG 1.1//EN" "http://www.w3.org/Graphics/SVG/1.1/DTD/svg11.dtd"><svg t="1510998437896" class="icon" style="" viewBox="0 0 1024 1024" version="1.1" xmlns="http://www.w3.org/2000/svg" p-id="4007" xmlns:xlink="http://www.w3.org/1999/xlink" width="200" height="200"><defs><style type="text/css"></style></defs><path d="M332.890716 422.437172l358.218568 0 0-25.584702-358.218568 0L332.890716 422.437172zM821.519426 192.157461l-619.038852 0c-41.031509 0-74.286913 33.089629-74.286913 73.918523l0 418.86481c0 40.804335 35.728736 70.131267 76.762291 70.131267l281.4573 0 0 51.173496L307.302945 806.245558l0 25.588795 383.806339 0L691.109284 806.245558 512 806.245558l0-51.173496 307.045071 0c41.004903 0 76.761268-29.326932 76.761268-70.131267L895.806339 266.075984C895.806339 225.246067 862.524329 192.157461 821.519426 192.157461zM870.219591 678.308747c0 27.202549-23.835871 51.173496-51.17452 51.173496L204.955952 729.482243c-27.337625 0-51.17452-23.969924-51.17452-51.173496L153.781432 268.917706c0-27.202549 23.836895-51.175543 51.17452-51.175543l614.08912 0c27.338648 0 51.17452 23.972994 51.17452 51.175543L870.219591 678.308747zM384.064212 524.786211l255.870552 0L639.934764 499.202533 384.064212 499.202533 384.064212 524.786211z" p-id="4008" fill="#515151"></path></svg>